<?xml version="1.0" standalone="no"?>
<!DOCTYPE svg PUBLIC "-//W3C//DTD SVG 20010904//EN"
 "http://www.w3.org/TR/2001/REC-SVG-20010904/DTD/svg10.dtd">
<svg version="1.0" xmlns="http://www.w3.org/2000/svg"
 width="2048.000000pt" height="2419.000000pt" viewBox="0 0 2048.000000 2419.000000"
 preserveAspectRatio="xMidYMid meet">

<g transform="translate(0.000000,2419.000000) scale(0.100000,-0.100000)"
fill="#000000" stroke="none">
<path d="M0 12095 l0 -12095 10240 0 10240 0 0 12095 0 12095 -10240 0 -10240
0 0 -12095z m16680 65 l0 -6430 -6445 0 -6445 0 0 6430 0 6430 6445 0 6445 0
0 -6430z"/>
<path d="M3995 18368 c-3 -7 -4 -2810 -3 -6228 l3 -6215 6233 -3 6232 -2 -2
6227 -3 6228 -6228 3 c-4977 2 -6229 0 -6232 -10z m4510 -972 c176 -1 425 1
554 4 l234 5 68 -160 c36 -88 121 -293 188 -455 67 -162 130 -315 141 -340 11
-25 110 -263 220 -530 110 -267 205 -494 210 -505 5 -11 30 -72 56 -135 25
-63 52 -128 59 -145 8 -16 30 -68 49 -115 19 -46 38 -86 43 -87 4 -2 39 79 77
180 86 227 127 334 214 562 116 303 369 966 469 1230 52 138 105 277 118 310
13 33 33 85 44 116 l21 56 523 7 c287 3 550 9 585 13 l62 6 0 -52 c0 -59 7
-55 -116 -69 -111 -13 -173 -40 -206 -90 -54 -82 -52 -16 -55 -1567 -3 -1285
-2 -1448 13 -1525 30 -162 73 -193 317 -225 l47 -6 0 -51 0 -51 -81 7 c-103 9
-1347 9 -1451 0 l-78 -7 0 51 0 51 48 6 c120 16 190 29 224 42 50 20 93 71
115 135 17 50 18 138 20 1488 2 831 -1 1429 -6 1420 -5 -8 -64 -159 -131 -335
-67 -176 -164 -430 -215 -565 -51 -135 -119 -310 -150 -390 -69 -177 -191
-494 -296 -770 -43 -113 -99 -259 -124 -325 -26 -66 -85 -221 -132 -345 -47
-124 -101 -265 -120 -315 -19 -49 -39 -102 -45 -117 -9 -25 -15 -28 -54 -28
-39 0 -46 3 -55 27 -6 15 -17 41 -24 58 -8 16 -66 156 -130 310 -64 154 -127
305 -140 335 -13 30 -108 255 -210 500 -200 479 -232 554 -245 585 -5 11 -57
135 -115 275 -59 140 -130 311 -159 380 -29 69 -118 280 -197 469 l-144 343
-3 -1283 c-3 -1341 1 -1512 38 -1630 50 -162 131 -212 423 -263 l38 -7 -3 -47
-3 -47 -40 1 c-149 6 -870 4 -908 -1 l-47 -7 0 50 c0 56 -5 53 105 78 56 12
130 52 162 85 52 55 82 135 99 261 12 96 14 321 12 1473 -3 1276 -4 1363 -21
1413 -34 101 -107 144 -272 159 l-80 8 -3 53 -3 52 73 -7 c40 -4 217 -7 393
-7z m0 -6830 c220 -1 487 1 594 3 l195 4 37 -89 c38 -88 134 -321 251 -604
124 -302 232 -564 485 -1170 107 -257 183 -440 220 -533 20 -48 39 -84 43 -80
4 4 72 177 150 383 78 206 162 427 187 490 45 116 83 215 411 1080 99 261 183
482 187 491 5 14 67 17 568 22 309 4 571 8 582 10 18 2 20 -4 20 -48 l0 -50
-66 -7 c-36 -3 -94 -13 -128 -22 -96 -25 -130 -57 -158 -153 -17 -54 -18 -162
-21 -1492 -2 -1219 0 -1447 12 -1519 28 -161 82 -199 319 -228 l47 -5 0 -51 0
-51 -127 8 c-161 9 -1220 8 -1370 -1 l-113 -7 0 52 c0 28 3 51 8 51 4 0 45 4
91 10 209 24 273 73 300 231 8 47 11 471 11 1464 0 769 -2 1396 -5 1393 -3 -2
-27 -63 -54 -134 -44 -117 -393 -1028 -561 -1464 -173 -451 -344 -899 -445
-1165 -36 -93 -89 -231 -118 -305 l-53 -135 -40 -3 -41 -3 -43 103 c-23 57
-111 267 -195 468 -84 201 -205 491 -270 645 -64 154 -123 294 -130 310 -8 17
-43 102 -80 190 -61 149 -92 221 -180 430 -19 44 -70 168 -115 275 -82 197
-124 298 -140 335 -5 11 -22 52 -38 90 -16 39 -53 126 -82 195 -29 69 -61 148
-73 175 -11 28 -24 54 -29 60 -14 16 -4 -2747 11 -2817 43 -215 128 -289 385
-333 49 -8 90 -15 92 -15 2 0 4 -23 4 -51 l0 -51 -92 6 c-128 10 -735 10 -830
1 l-78 -7 0 51 c0 47 2 51 28 57 183 40 259 93 306 213 44 113 46 172 46 1576
0 874 -4 1352 -11 1395 -13 81 -40 140 -79 168 -35 26 -117 49 -215 59 l-70 8
-3 52 -3 53 33 -7 c18 -4 213 -7 433 -7z"/>
</g>
</svg>
