<?xml version="1.0" standalone="no"?>
<!DOCTYPE svg PUBLIC "-//W3C//DTD SVG 20010904//EN"
 "http://www.w3.org/TR/2001/REC-SVG-20010904/DTD/svg10.dtd">
<svg version="1.0" xmlns="http://www.w3.org/2000/svg"
 width="2048.000000pt" height="2459.000000pt" viewBox="0 0 2048.000000 2459.000000"
 preserveAspectRatio="xMidYMid meet">

<g transform="translate(0.000000,2459.000000) scale(0.100000,-0.100000)"
fill="#000000" stroke="none">
<path d="M8040 17448 l0 -48 39 0 c65 0 190 -28 234 -52 51 -28 82 -81 97
-165 14 -83 14 -2715 0 -2831 -20 -154 -60 -240 -137 -291 -44 -29 -145 -65
-203 -73 -23 -3 -25 -8 -28 -56 l-3 -54 68 8 c86 10 752 10 856 0 l77 -8 0 51
c0 45 -3 51 -22 55 -230 44 -285 63 -349 123 -27 25 -56 66 -69 96 -53 122
-53 116 -57 1592 -2 796 0 1366 5 1360 5 -5 29 -59 54 -120 41 -100 509 -1217
940 -2245 94 -223 217 -517 274 -655 58 -137 107 -251 109 -253 9 -9 77 -7 84
3 4 5 36 84 70 175 35 91 155 406 268 700 112 294 232 607 265 695 33 88 68
178 78 200 10 22 126 324 258 670 132 347 250 656 263 688 12 31 26 57 31 57
15 0 4 -2802 -11 -2870 -29 -129 -92 -179 -251 -200 -168 -22 -150 -14 -150
-71 l0 -51 108 8 c137 10 1276 10 1405 0 l97 -8 0 51 c0 57 3 55 -100 65 -137
14 -225 67 -249 151 -28 99 -32 298 -29 1640 3 1271 5 1374 21 1430 26 88 60
125 138 152 35 12 99 25 142 29 l77 7 0 47 0 48 -577 -5 c-318 -3 -582 -9
-586 -13 -5 -4 -140 -353 -301 -776 -587 -1543 -641 -1682 -648 -1676 -7 7
-120 279 -707 1695 -166 401 -307 738 -312 751 l-11 22 -629 0 -629 -1 0 -47z"/>
<path d="M8040 10628 c0 -32 4 -48 13 -48 7 0 49 -5 94 -10 178 -22 237 -69
262 -205 18 -96 15 -2741 -3 -2862 -14 -96 -46 -178 -89 -228 -32 -39 -112
-78 -204 -100 l-73 -18 0 -46 0 -46 500 0 500 0 0 47 0 46 -72 11 c-98 16
-219 55 -268 87 -72 48 -119 140 -141 280 -14 87 -24 2817 -10 2794 8 -13 230
-540 296 -700 12 -30 75 -181 140 -335 156 -373 279 -666 543 -1295 121 -289
260 -619 308 -735 l89 -210 41 -3 41 -3 183 478 c101 263 259 676 352 918 256
665 489 1271 595 1553 53 138 100 252 105 252 11 0 10 -2579 -1 -2740 -18
-262 -56 -306 -289 -338 l-122 -16 0 -46 0 -45 805 0 805 0 0 48 c0 31 -4 47
-12 47 -7 0 -55 6 -106 14 -188 28 -234 81 -252 286 -13 155 -13 2667 0 2820
12 135 40 206 94 239 38 24 125 47 214 56 l62 7 0 47 0 47 -577 -4 c-318 -2
-581 -7 -585 -10 -4 -4 -111 -281 -239 -617 -127 -335 -257 -677 -289 -760
-65 -169 -335 -876 -382 -1002 -17 -46 -34 -83 -37 -83 -3 0 -37 76 -75 168
-38 92 -176 424 -306 737 -130 314 -330 795 -444 1070 l-207 500 -630 0 -629
0 0 -47z"/>
</g>
</svg>
